<?xml version="1.0" encoding="utf-8"?>
<!-- Generator: Adobe Illustrator 19.0.0, SVG Export Plug-In . SVG Version: 6.00 Build 0)  -->
<svg version="1.1" id="Layer_1" xmlns="http://www.w3.org/2000/svg" xmlns:xlink="http://www.w3.org/1999/xlink" x="0px" y="0px"
	 width="219px" height="143px" viewBox="0 0 219 143" style="enable-background:new 0 0 219 143;" xml:space="preserve">
<style type="text/css">
	.st0{fill:none;stroke:#EC2727;}
	.st1{fill:none;stroke:#3B54A4;}
</style>
	<path id="0x0b" class="st1" d="M162.1,139.8c-8.2,1.3-16.9,0.6-25.2,0.5c-14.5-0.1-29.1-0.1-43.7-0.2c-3.6,0-7.1,0-10.7,0"/>
	<path id="0x08" class="st1" d="M208.6,67.4c0,9.3,0.5,18.2-1.8,27.2c-2.2,8.4-6.7,17.6-12.2,24.2c-3.6,4.4-7.2,7.7-11.8,11"/>
	<path id="0x0d" class="st1" d="M175.4,3.6c8.4,4.1,15,8.6,21.2,17.1c5.6,7.6,10.3,17.1,11.7,26.6c0.8,5.5,0.3,11.1,0.4,16.5"/>
	<path id="0x0e" class="st1" d="M154.3-1.2c-8,0-16.1,0-24,0c-8.2,0-15.9,1.4-23.6,4.1c-4.3,1.4-8.6,2.7-12.9,4.1"/>
	<path id="0x09" class="st1" d="M217.3,141.8c0.2-23.8,0.3-47.7,0.5-71.4c0.1-17.5,2.4-37.9-11.9-50.9
		c-4.7-4.3-10.4-7.5-15.7-11c-4.4-2.8-9.4-5.4-14.4-7.1"/>
	<path id="0x0a" class="st1" d="M22.9,81.7c3.6,9.3,10.1,19,18.8,24.1c9.3,5.5,18.7,7.8,29.2,7.9c24.7,0.2,49.4,0.3,73.9,0.3
		c5,0,10-0.1,15-0.6c6.3-0.5,11.9-2.5,17.7-5.1"/>
	<path id="0x0c" class="st1" d="M181,20.7c5.6,4.4,10.3,8.5,14.1,14.6c3.7,5.9,5.4,12.3,5.9,19.1c0.9,13,0.5,26.7-6.4,38.2
		c-4,6.5-9.2,10.6-15.2,15.1"/>
	<path id="0x16" class="st1" d="M94.2,11c18.8,0,37.6-0.1,56.6,0c3.5,0,7.3-0.1,10.6,0.8"/>
	<path id="0x10" class="st1" d="M19.6,59.1c0.3-2.2,0.9-5.9,1.4-8c0.5-2.1,1.1-4.3,1.8-6.3s1.6-4.1,2.7-6
		c1.1-1.9,2.3-3.8,3.9-5.5c1.4-1.7,3.1-3.3,4.7-4.8c1.6-1.4,3.5-2.7,5.3-3.9c1.8-1.1,3.8-2.2,5.8-3c2-0.9,4.1-1.7,6.3-2.3
		c1.4-0.4,2.7-0.8,4.2-1.3c1.4-0.4,2.7-0.8,4.2-1.3c1.4-0.4,2.7-0.8,4.2-1.3c1.4-0.4,2.7-0.8,4.2-1.3"/>
	<path id="0x11" class="st1" d="M105.4,31c-3.2,3.3-5.9,6.5-7.3,11c-1.3,3.9-2,8.1-2.1,12.2c-0.3,9.4-0.1,18.8-4.4,27.5
		c-8.1,16.3-26.7,24.6-44.2,18.8c-9.9-3.2-17.2-10.5-22.1-19.2"/>
	<path id="0x0f" class="st1" d="M160.5,14.4c-9.9-0.4-19.1,2.2-28.8,4.4c-9,1.9-17.1,4-24.1,10.2"/>
	<path id="0x14" class="st1" d="M12.5,101.8c4.1,10.5,11.7,19.6,22,24.6c10,4.8,20.2,4.5,31,4.6c7.4,0.1,14.8,0.2,22.2,0.3"/>
	<path id="0x17" class="st1" d="M161,137.1c-9.4-0.1-17.7-1.2-26.9-3.3c-8.7-2-17-2.8-25.9-2.7c-6,0-12,0.1-18,0.1"/>
</g>
</svg>
