<?xml version="1.0" encoding="utf-8"?>
<!-- Generator: Adobe Illustrator 19.0.0, SVG Export Plug-In . SVG Version: 6.00 Build 0)  -->
<svg version="1.1" id="Layer_1" xmlns="http://www.w3.org/2000/svg" xmlns:xlink="http://www.w3.org/1999/xlink" x="0px" y="0px"
	 width="219px" height="143px" viewBox="0 0 219 143" style="enable-background:new 0 0 219 143;" xml:space="preserve">
<style type="text/css">
	.st0{fill:none;stroke:#EC2727;}
	.st1{fill:none;stroke:#3B54A4;}
</style>
<g id="Switches">
	<rect id="0x01" x="154.6" y="-1.3" transform="matrix(-0.9855 -0.1695 0.1695 -0.9855 327.5581 33.5561)" class="st0" width="21.2" height="8.1"/>
	<rect id="0x02" x="160.6" y="14.9" transform="matrix(-0.954 -0.2999 0.2999 -0.954 328.6875 88.2789)" class="st0" width="21" height="8.1"/>
	<rect id="0x04" x="69.3" y="8.3" transform="matrix(-0.9904 0.1383 -0.1383 -0.9904 165.8434 16.0228)" class="st0" width="26" height="11"/>
	<rect id="0x03" x="161.1" y="130" transform="matrix(0.9218 -0.3876 0.3876 0.9218 -38.991 77.3469)" class="st0" width="22.3" height="10.6"/>
	<rect id="0x06" x="-0.7" y="87.8" transform="matrix(0.1252 0.9921 -0.9921 0.1252 101.0419 70.4364)" class="st0" width="22.5" height="9.4"/>
	<rect id="0x05" x="12.6" y="67.7" transform="matrix(0.2133 0.977 -0.977 0.2133 89.541 33.6094)" class="st0" width="22.5" height="9.4"/>
</g>
<g id="Sections">
	<path id="0x15" class="st1" d="M9.8,81.2c0-13.9-1.4-27.7,5-40.5c5.9-11.8,17.4-21.7,30.4-25c8-2.1,15.8-2,24-2"/>
	<path id="0x13" class="st1" d="M81.2,141.5c-10.8-0.1-22.8,1.1-33.5-1.7c-11.1-2.9-20.9-9.6-27.5-18.9
		c-3.8-5.3-6.6-10.8-8.4-17"/>
	<path id="0x0b" class="st1" d="M162.2,141c-8.1,1.3-16.6,0.6-24.8,0.5c-14.3-0.1-28.6-0.1-43.1-0.2c-3.5,0-7,0-10.5,0"/>
	<path id="0x08" class="st1" d="M208,69.5c0,9.2,0.5,17.9-1.8,26.8c-2.2,8.3-6.6,17.3-12,23.9c-3.5,4.3-7.1,7.6-11.6,10.8"/>
	<path id="0x0d" class="st1" d="M175.3,6.6c8.3,4,14.7,8.5,20.8,16.9c5.5,7.5,10.1,16.9,11.5,26.2c0.8,5.4,0.3,10.9,0.4,16.3"/>
	<path id="0x0e" class="st1" d="M154.6,1.9c-7.9,0-15.8,0-23.6,0c-8.1,0-15.6,1.4-23.2,4c-4.2,1.4-8.5,2.7-12.7,4"/>
	<path id="0x09" class="st1" d="M216.6,142.9c0.2-23.5,0.3-47.1,0.5-70.5c0.1-17.2,2.4-37.4-11.7-50.3
		c-4.6-4.2-10.2-7.4-15.4-10.8c-4.3-2.8-9.2-5.3-14.2-7"/>
	<path id="0x0a" class="st1" d="M25.2,83.6c3.5,9.2,9.9,18.7,18.5,23.8c9.1,5.4,18.4,7.7,28.8,7.8c24.3,0.2,48.6,0.3,72.8,0.3
		c4.9,0,9.8-0.1,14.7-0.5c6.2-0.5,11.7-2.5,17.4-5"/>
	<path id="0x0c" class="st1" d="M180.8,23.5c5.5,4.3,10.1,8.4,13.9,14.4c3.6,5.8,5.3,12.1,5.8,18.8c0.9,12.8,0.5,26.3-6.3,37.6
		c-3.9,6.4-9,10.4-14.9,14.9"/>
	<path id="0x16" class="st1" d="M95.4,13.9c18.5,0,37.1-0.1,55.7,0c3.4,0,7.2-0.1,10.4,0.8"/>
	<path id="0x10" class="st1" d="M21.9,61.3c0.3-2.2,0.9-5.8,1.4-7.9c0.5-2.1,1.1-4.2,1.8-6.2c0.7-2,1.6-4,2.7-5.9
		c1.1-1.9,2.3-3.7,3.8-5.4c1.4-1.7,3-3.3,4.6-4.7s3.4-2.7,5.2-3.8c1.8-1.1,3.7-2.2,5.7-3c2-0.9,4-1.7,6.2-2.3
		c1.4-0.4,2.7-0.8,4.1-1.3c1.4-0.4,2.7-0.8,4.1-1.3c1.4-0.4,2.7-0.8,4.1-1.3c1.4-0.4,2.7-0.8,4.1-1.3"/>
	<path id="0x11" class="st1" d="M106.4,33.6c-3.1,3.3-5.8,6.4-7.2,10.8c-1.3,3.8-2,8-2.1,12c-0.3,9.3-0.1,18.5-4.3,27.1
		c-8,16.1-26.2,24.2-43.5,18.5c-9.7-3.2-16.9-10.3-21.7-18.9"/>
	<path id="0x0f" class="st1" d="M160.6,17.3c-9.7-0.4-18.8,2.2-28.3,4.3c-8.8,1.9-16.8,3.9-23.7,10.1"/>
	<path id="0x14" class="st1" d="M14,103.5c4,10.3,11.5,19.3,21.6,24.2c9.8,4.7,20.8,4.4,31.6,4.5c7.3,0.1,14.5,0.2,21.8,0.3"/>
	<path id="0x17" class="st1" d="M161.1,138.3c-9.2-0.1-17.4-1.2-26.4-3.3c-8.6-2-16.7-2.8-25.5-2.7c-5.9,0-11.8,0.1-17.7,0.1"/>
</g>
</svg>
