<?xml version="1.0" encoding="utf-8"?>
<!-- Generator: Adobe Illustrator 19.0.0, SVG Export Plug-In . SVG Version: 6.00 Build 0)  -->
<svg version="1.1" xmlns="http://www.w3.org/2000/svg" xmlns:xlink="http://www.w3.org/1999/xlink" x="0px" y="0px" width="219px"
	 height="143px" viewBox="0 0 219 143" style="enable-background:new 0 0 219 143;" xml:space="preserve">
<style type="text/css">
	.st0{fill:none;stroke:#ED2224;}
	.st1{fill:none;stroke:#3A53A4;}
</style>
<g id="Switches">
	<rect id="0x01" x="152.8" y="0.7" transform="matrix(0.9855 0.1696 -0.1696 0.9855 3.1842 -27.6522)" class="st0" width="21.2" height="8.1"/>
	<rect id="0x02" x="158.8" y="16.8" transform="matrix(0.9539 0.3 -0.3 0.9539 14.0653 -49.832)" class="st0" width="21" height="8.1"/>
	<rect id="0x04" x="67.7" y="10.2" transform="matrix(0.9904 -0.1384 0.1384 0.9904 -1.3983 11.3275)" class="st0" width="26" height="11"/>
	<rect id="0x03" x="159.1" y="132.7" transform="matrix(0.9299 -0.3678 0.3678 0.9299 -38.5839 72.2731)" class="st0" width="22.5" height="9.4"/>
	<rect id="0x06" x="-2.2" y="89.7" transform="matrix(-0.1251 -0.9921 0.9921 -0.1251 -83.4881 115.1474)" class="st0" width="22.5" height="9.4"/>
	<rect id="0x05" x="11.1" y="69.5" transform="matrix(-0.2132 -0.977 0.977 -0.2132 -45.3959 111.9287)" class="st0" width="22.5" height="9.4"/>
</g>
<g id="Sections">
	<path id="0x15" class="st1" d="M8.3,83.1c0-13.9-1.4-27.7,5-40.5c5.9-11.8,17.4-21.7,30.3-25c8-2.1,15.8-2,24-2"/>
	<path id="0x13" class="st1" d="M79.5,143.3c-10.8-0.1-22.8,1.1-33.4-1.7c-11.1-2.9-20.9-9.6-27.5-18.9
		c-3.8-5.3-6.6-10.8-8.4-17"/>
	<path id="0x0b" class="st1" d="M160.4,142.8c-8.1,1.3-16.6,0.6-24.8,0.5c-14.3-0.1-28.6-0.1-43-0.2c-3.5,0-7,0-10.5,0"/>
	<path id="0x08" class="st1" d="M206.1,71.4c0,9.2,0.5,17.9-1.8,26.8c-2.2,8.3-6.6,17.3-12,23.9c-3.5,4.3-7.1,7.6-11.6,10.8"
		/>
	<path id="0x0d" class="st1" d="M173.5,8.5c8.3,4,14.7,8.5,20.8,16.9c5.5,7.5,10.1,16.9,11.5,26.2c0.8,5.4,0.3,10.9,0.4,16.3
		"/>
	<path id="0x0e" class="st1" d="M152.8,3.8c-7.9,0-15.8,0-23.6,0c-8.1,0-15.6,1.4-23.2,4c-4.2,1.4-8.5,2.7-12.7,4"/>
	<path id="0x09" class="st1" d="M214.7,144.7c0.2-23.5,0.3-47,0.5-70.4c0.1-17.2,2.4-37.4-11.7-50.2
		c-4.6-4.2-10.2-7.4-15.4-10.8c-4.3-2.8-9.2-5.3-14.2-7"/>
	<path id="0x0a" class="st1" d="M23.6,85.5c3.5,9.2,9.9,18.7,18.5,23.8c9.1,5.4,18.2,7.4,28.6,7.5
		c24.3,0.2,48.6,0.3,72.9,0.3c4.9,0,9.7,0.2,14.6-0.2c6.2-0.5,11.7-2.5,17.4-5"/>
	<path id="0x0c" class="st1" d="M179,25.4c5.5,4.3,10.1,8.4,13.9,14.4c3.6,5.8,5.3,12.1,5.8,18.8c0.9,12.8,0.5,26.3-6.3,37.6
		c-3.9,6.4-9,10.4-14.9,14.9"/>
	<path id="0x16" class="st1" d="M93.7,15.8c18.5,0,37-0.1,55.6,0c3.4,0,7.2-0.1,10.4,0.8"/>
	<path id="0x10" class="st1" d="M20.3,63.2c0.3-2.2,0.9-5.8,1.4-7.9c0.5-2.1,1.1-4.2,1.8-6.2c0.7-2,1.6-4,2.7-5.9
		c1.1-1.9,2.3-3.7,3.8-5.4c1.4-1.7,3-3.3,4.6-4.7c1.6-1.4,3.4-2.7,5.2-3.8c1.8-1.1,3.7-2.2,5.7-3c2-0.9,4-1.7,6.2-2.3
		c1.4-0.4,2.7-0.8,4.1-1.3c1.4-0.4,2.7-0.8,4.1-1.3c1.4-0.4,2.7-0.8,4.1-1.3c1.4-0.4,2.7-0.8,4.1-1.3"/>
	<path id="0x11" class="st1" d="M104.7,35.5c-3.1,3.3-5.8,6.4-7.2,10.8c-1.3,3.8-2,8-2.1,12c-0.3,9.3-0.1,18.5-4.3,27.1
		c-8,16.1-26.2,24.2-43.4,18.5C38,100.7,30.8,93.6,26,85"/>
	<path id="0x0f" class="st1" d="M158.8,19.2c-9.7-0.4-18.8,2.2-28.3,4.3c-8.8,1.9-16.8,3.9-23.7,10.1"/>
	<path id="0x14" class="st1" d="M12.4,105.3c4,10.3,11.5,19.3,21.6,24.2c9.8,4.7,20.8,4.4,31.5,4.5
		c7.3,0.1,14.5,0.2,21.8,0.3"/>
	<path id="0x17" class="st1" d="M159.3,140.1c-9.2-0.1-17.4-1.2-26.4-3.3c-8.6-2-16.7-2.8-25.5-2.7c-5.9,0-11.8,0.1-17.7,0.1
		"/>
</g>
</svg>
