<?xml version="1.0" encoding="utf-8"?>
<!-- Generator: Adobe Illustrator 19.0.0, SVG Export Plug-In . SVG Version: 6.00 Build 0)  -->
<svg version="1.1" id="Layer_1" xmlns="http://www.w3.org/2000/svg" xmlns:xlink="http://www.w3.org/1999/xlink" x="0px" y="0px"
	 viewBox="-196 325 219 143" style="enable-background:new -196 325 219 143;" xml:space="preserve">
<style type="text/css">
	.st0{fill:none;stroke:#ED2224;}
	.st1{fill:none;stroke:#3A53A4;}
</style>
<g id="Switches">
	<polygon id="_x30_x01" class="st0" points="-40.6,321.8 -19.7,325.4 -21.1,333.4 -42,329.8 	"/>
	<polygon id="_x30_x02" class="st0" points="-33.8,336.7 -13.7,343 -16.1,350.8 -36.2,344.4 	"/>
	<polygon id="_x30_x04" class="st0" points="-127.4,334.9 -101.6,331.3 -100.1,342.2 -125.9,345.8 	"/>
	<polygon id="_x30_x03" class="st0" points="-36.1,460.5 -15.1,452.2 -11.7,460.9 -32.6,469.2 	"/>
	<polygon id="_x30_x06" class="st0" points="-188.8,429.3 -191.6,406.9 -182.3,405.7 -179.5,428.1 	"/>
	<polygon id="_x30_x05" class="st0" points="-174.4,409.4 -179.2,387.3 -170,385.3 -165.2,407.4 	"/>
</g>
<g id="Sections">
	<path id="_x30_x15" class="st1" d="M-186.3,406.2c0-14-1.4-27.8,5-40.7c5.9-11.8,17.4-21.8,30.4-25.1c8-2.1,15.8-2,24-2"/>
	<path id="_x30_x13" class="st1" d="M-114.9,466.6c-10.8-0.1-22.8,1.1-33.5-1.7c-11.1-2.9-20.9-9.6-27.6-19
		c-3.8-5.3-6.6-10.8-8.4-17.1"/>
	<path id="_x30_x0b" class="st1" d="M-33.9,466.1c-8.1,1.3-16.6,0.6-24.9,0.5c-14.3-0.1-28.7-0.1-43.1-0.2c-3.5,0-7,0-10.5,0"/>
	<path id="_x30_x08" class="st1" d="M11.9,394.5c0,9.2,0.5,18-1.8,26.9c-2.2,8.3-6.6,17.4-12,24c-3.5,4.3-7.1,7.6-11.6,10.8"/>
	<path id="_x30_x0d" class="st1" d="M-20.7,331.3c8.3,4,14.7,8.5,20.8,17c5.5,7.5,10.1,17,11.5,26.3c0.8,5.4,0.3,10.9,0.4,16.4"/>
	<path id="_x30_x0e" class="st1" d="M-41.5,326.6c-7.9,0-15.8,0-23.6,0c-8.1,0-15.6,1.4-23.2,4c-4.2,1.4-8.5,2.7-12.7,4"/>
	<path id="_x30_x09" class="st1" d="M20.6,468.1c0.2-23.6,0.3-47.2,0.5-70.7c0.1-17.3,2.4-37.5-11.7-50.4
		c-4.6-4.2-10.2-7.4-15.4-10.8c-4.3-2.8-9.2-5.3-14.2-7"/>
	<path id="_x30_x0a" class="st1" d="M-170.9,408.6c3.5,9.2,9.9,18.8,18.5,23.9c9.1,5.4,18.2,7.4,28.7,7.5
		c24.4,0.2,48.7,0.3,73.1,0.3c4.9,0,9.7,0.2,14.6-0.2c6.2-0.5,11.7-2.5,17.4-5"/>
	<path id="_x30_x0c" class="st1" d="M-15.2,348.3c5.5,4.3,10.1,8.4,13.9,14.5c3.6,5.8,5.3,12.1,5.8,18.9C5.4,394.5,5,408-1.8,419.4
		c-3.9,6.4-9,10.4-14.9,15"/>
	<path id="_x30_x16" class="st1" d="M-100.7,338.7c18.5,0,37.1-0.1,55.7,0c3.4,0,7.2-0.1,10.4,0.8"/>
	<path id="_x30_x10" class="st1" d="M-174.3,386.2c0.3-2.2,0.9-5.8,1.4-7.9s1.1-4.2,1.8-6.2c0.7-2,1.6-4,2.7-5.9
		c1.1-1.9,2.3-3.7,3.8-5.4c1.4-1.7,3-3.3,4.6-4.7c1.6-1.4,3.4-2.7,5.2-3.8c1.8-1.1,3.7-2.2,5.7-3c2-0.9,4-1.7,6.2-2.3
		c1.4-0.4,2.7-0.8,4.1-1.3c1.4-0.4,2.7-0.8,4.1-1.3c1.4-0.4,2.7-0.8,4.1-1.3c1.4-0.4,2.7-0.8,4.1-1.3"/>
	<path id="_x30_x11" class="st1" d="M-89.7,358.4c-3.1,3.3-5.8,6.4-7.2,10.8c-1.3,3.8-2,8-2.1,12c-0.3,9.3-0.1,18.6-4.3,27.2
		c-8,16.2-26.3,24.3-43.5,18.6c-9.7-3.2-16.9-10.3-21.7-19"/>
	<path id="_x30_x0f" class="st1" d="M-35.5,342.1c-9.7-0.4-18.8,2.2-28.4,4.3c-8.8,1.9-16.8,3.9-23.7,10.1"/>
	<path id="_x30_x14" class="st1" d="M-182.2,428.5c4,10.3,11.5,19.4,21.6,24.3c9.8,4.7,20.8,4.4,31.6,4.5c7.3,0.1,14.5,0.2,21.8,0.3
		"/>
	<path id="_x30_x17" class="st1" d="M-35,463.4c-9.2-0.1-17.4-1.2-26.5-3.3c-8.6-2-16.7-2.8-25.6-2.7c-5.9,0-11.8,0.1-17.7,0.1"/>
</g>
</svg>
