<?xml version="1.0" encoding="utf-8"?>
<!-- Generator: Adobe Illustrator 19.0.0, SVG Export Plug-In . SVG Version: 6.00 Build 0)  -->
<svg version="1.1" xmlns="http://www.w3.org/2000/svg" xmlns:xlink="http://www.w3.org/1999/xlink" x="0px" y="0px" width="219px"
	 height="143px" viewBox="0 0 219 143" style="enable-background:new 0 0 219 143;" xml:space="preserve">
<style type="text/css">
	.st0{fill:none;stroke:#3B54A4;}
	.st1{fill:none;stroke:#EC2727;}
	.st2{fill:none;stroke:#ED1C24;}
</style>
<g id="Sections">
	<path id="0x15" class="st0" d="M7.3,79.3c0-14.1-1.4-28.1,5.1-41.1c6-12,17.7-22,30.8-25.4c8.1-2.1,11.2-2,19.5-2"/>
	<path id="0x13" class="st0" d="M79.8,140.1c-11-0.1-23,0-33.9-2c-11.3-2.9-24.1-11-30.7-22.5"/>
	<path id="0x0b" class="st0" d="M148.3,140.6c-3.8-0.1-7.7-0.2-11.4-0.3c-14.5-0.1-29.1-0.1-43.7-0.2c-3.6,0-7.1,0-10.7,0"/>
	<path id="0x08" class="st0" d="M208.6,67.4c0,9.3,0.5,18.2-1.8,27.2c-2.2,8.4-6.7,17.6-12.2,24.2c-3.6,4.4-5.4,6-9.9,9.6"/>
	<path id="0x0d" class="st0" d="M187.3,10.8c3.3,2.6,6.3,5.8,9.3,9.9c5.6,7.6,10.3,17.1,11.7,26.6c0.8,5.5,0.3,11.1,0.4,16.5
		"/>
	<path id="0x0e" class="st0" d="M151.7-1.2c-8,0-13.5,0-21.4,0c-8.2,0-15.9,1.4-23.6,4.1c-4.3,1.4-5.7,1.8-9.9,3.1"/>
	<path id="0x09" class="st0" d="M217.3,141.8c0.2-23.8,0.3-47.7,0.5-71.4c0.1-17.5,2.4-37.9-11.9-50.9
		c-4.7-4.3-12.2-8.8-17.5-12.3"/>
	<path id="0x0a" class="st0" d="M26.9,90.1c5.7,8.4,7.8,10.7,14.8,15.7c9.3,5.5,18.7,7.8,29.2,7.9c24.7,0.2,49.4,0.3,73.9,0.3
		c5,0,10-0.1,15-0.6c6.3-0.5,11.9-2.5,17.7-5.1"/>
	<path id="0x0c" class="st0" d="M181.7,21.3c5.6,4.4,9.5,7.9,13.4,14c3.7,5.9,5.4,12.3,5.9,19.1c0.9,13,0.5,26.7-6.4,38.2
		c-4,6.5-9.2,10.6-15.2,15.1"/>
	<path id="0x16" class="st0" d="M97.4,11c18.8,0,34.5-0.1,53.4,0"/>
	<path id="0x10" class="st0" d="M19.7,58.3c0.3-2.2,0.8-5.1,1.3-7.2c0.5-2.1,1.1-4.3,1.8-6.3s1.6-4.1,2.7-6
		c1.1-1.9,2.3-3.8,3.9-5.5c1.4-1.7,3.1-3.3,4.7-4.8c1.6-1.4,3.5-2.7,5.3-3.9c1.8-1.1,3.8-2.2,5.8-3c2-0.9,4.1-1.7,6.3-2.3
		c1.4-0.4,2.7-0.8,4.2-1.3c1.4-0.4,2.7-0.8,4.2-1.3c1.4-0.4,2.1-0.6,3.5-1.1"/>
	<path id="0x11" class="st0" d="M105.4,31c-3.2,3.3-5.9,6.5-7.3,11c-1.3,3.9-2,8.1-2.1,12.2c-0.3,9.4-0.1,18.8-4.4,27.5
		c-8.1,16.3-26.7,24.6-44.2,18.8c-8-3.3-12.6-6.1-16.6-11.3"/>
	<path id="0x0f" class="st0" d="M149.6,15.1c-9.2,1.4-8.3,1.6-17.9,3.7c-9,1.9-17.1,4-24.1,10.2"/>
	<path id="0x14" class="st0" d="M18.9,114.6c2.8,4.3,10.6,9.4,14.9,11.5c10.2,4,21,4.4,31.9,4.5c7.4,0.1,14.6,0.3,22,0.4"/>
	<path id="0x17" class="st0" d="M147.7,136.2c-4.5-0.6-9-1.4-13.6-2.5c-8.7-2-17-2.8-25.9-2.7c-6,0-12,0.1-18,0.1"/>
</g>
<g id="Turnouts">
	<rect id="0x05" x="15.5" y="57.9" transform="matrix(0.9647 -0.2635 0.2635 0.9647 -18.7258 8.768)" class="st1" width="15.6" height="32.6"/>
	<rect id="0x06" x="4.8" y="78.2" transform="matrix(0.963 -0.2696 0.2696 0.963 -25.6832 6.8991)" class="st1" width="14.9" height="37.5"/>
	<rect id="0x04" x="62.8" y="1.3" transform="matrix(0.9931 -0.1177 0.1177 0.9931 -0.5568 9.4694)" class="st2" width="34.3" height="16.4"/>
	<rect id="0x07" x="62.8" y="1.3" transform="matrix(0.9931 -0.1177 0.1177 0.9931 -0.5568 9.4694)" class="st2" width="34.3" height="16.4"/>
	<rect id="0x02" x="149.9" y="9.5" transform="matrix(0.9559 0.2937 -0.2937 0.9559 12.159 -48.0916)" class="st2" width="32.6" height="13.9"/>
	<rect id="0x01" x="152" y="-6.2" transform="matrix(0.9559 0.2937 -0.2937 0.9559 7.7474 -50.1277)" class="st2" width="37.6" height="13.9"/>
	<rect id="0x03" x="147.7" y="127" transform="matrix(0.9931 -0.1177 0.1177 0.9931 -14.7307 20.5285)" class="st2" width="37.5" height="16"/>
</g>
</svg>
