<?xml version="1.0" encoding="utf-8"?>
<!-- Generator: Adobe Illustrator 19.0.0, SVG Export Plug-In . SVG Version: 6.00 Build 0)  -->
<svg version="1.1" xmlns="http://www.w3.org/2000/svg" xmlns:xlink="http://www.w3.org/1999/xlink" x="0px" y="0px" width="219px"
	 height="143px" viewBox="0 0 219 143" style="enable-background:new 0 0 219 143;" xml:space="preserve">
<style type="text/css">
	.st0{fill:none;stroke:#3B54A4;}
	.st1{fill:none;stroke:#ED1C24;}
</style>
<g id="Sections">
	<path id="0x15" class="st0" d="M13.6,83.4c0-13.3-1.4-26.5,4.9-38.7C24.3,33.4,35.7,24,48.4,20.8c7.9-2,10.9-1.9,18.9-1.9"/>
	<path id="0x13" class="st0" d="M83.9,140.7c-10.7-0.1-22.3,0-32.9-1.9c-11-2.7-23.4-10.4-29.8-21.2"/>
	<path id="0x0b" class="st0" d="M150.4,141.2c-3.7-0.1-7.5-0.2-11.1-0.3c-14.1-0.1-28.2-0.1-42.4-0.2c-3.5,0-6.9,0-10.4,0"/>
	<path id="0x08" class="st0" d="M208.9,72.2c0,8.8,0.5,17.2-1.7,25.6c-2.1,7.9-6.5,16.6-11.8,22.8c-3.5,4.1-5.2,5.7-9.6,9.1"/>
	<path id="0x0d" class="st0" d="M188.2,18.8c3.2,2.5,6.1,5.5,9,9.3c5.4,7.2,10,16.1,11.4,25.1c0.8,5.2,0.3,10.5,0.4,15.6"/>
	<path id="0x0e" class="st0" d="M153.7,7.5c-7.8,0-13.1,0-20.8,0c-8,0-15.4,1.3-22.9,3.9c-4.2,1.3-5.5,1.7-9.6,2.9"/>
	<path id="0x09" class="st0" d="M217.3,142.3c0.2-22.4,0.3-45,0.5-67.3c0.1-16.5,2.3-35.7-11.5-48c-4.6-4.1-11.8-8.3-17-11.6"/>
	<path id="0x0a" class="st0" d="M32.6,93.6c5.5,7.9,7.6,10.1,14.4,14.8c9,5.2,18.1,7.4,28.3,7.4c24,0.2,47.9,0.3,71.7,0.3
		c4.9,0,9.7-0.1,14.6-0.6c6.1-0.5,11.5-2.4,17.2-4.8"/>
	<path id="0x0c" class="st0" d="M182.8,28.7c5.4,4.1,9.2,7.4,13,13.2c3.6,5.6,5.2,11.6,5.7,18c0.9,12.3,0.5,25.2-6.2,36
		c-3.9,6.1-8.9,10-14.7,14.2"/>
	<path id="0x16" class="st0" d="M101,19c18.2,0,33.5-0.1,51.8,0"/>
	<path id="0x10" class="st0" d="M25.6,63.6c0.3-2.1,0.8-4.8,1.3-6.8s1.1-4.1,1.7-5.9c0.7-1.9,1.6-3.9,2.6-5.7
		c1.1-1.8,2.2-3.6,3.8-5.2c1.4-1.6,3-3.1,4.6-4.5c1.6-1.3,3.4-2.5,5.1-3.7c1.7-1,3.7-2.1,5.6-2.8c1.9-0.8,4-1.6,6.1-2.2
		c1.4-0.4,2.6-0.8,4.1-1.2c1.4-0.4,2.6-0.8,4.1-1.2c1.4-0.4,2-0.6,3.4-1"/>
	<path id="0x11" class="st0" d="M108.8,37.9c-3.1,3.1-5.7,6.1-7.1,10.4c-1.3,3.7-1.9,7.6-2,11.5c-0.3,8.9-0.1,17.7-4.3,25.9
		c-7.9,15.4-25.9,23.2-42.9,17.7c-7.8-3.1-12.2-5.8-16.1-10.7"/>
	<path id="0x0f" class="st0" d="M151.6,22.9c-8.9,1.3-8.1,1.5-17.4,3.5c-8.7,1.8-16.6,3.8-23.4,9.6"/>
	<path id="0x14" class="st0" d="M24.8,116.7c2.7,4.1,10.3,8.9,14.5,10.8c9.9,3.8,20.4,4.1,30.9,4.2c7.2,0.1,14.2,0.3,21.3,0.4"
		/>
	<path id="0x17" class="st0" d="M149.8,137.1c-4.4-0.6-8.7-1.3-13.2-2.4c-8.4-1.9-16.5-2.6-25.1-2.5c-5.8,0-11.6,0.1-17.5,0.1"
		/>
</g>
<g id="Turnouts">
	<rect id="0x04" x="66.6" y="7.5" class="st1" width="34.9" height="22.4"/>
	
		<rect id="0x05" x="22.5" y="63.1" transform="matrix(0.963 -0.2695 0.2695 0.963 -20.0683 11.019)" class="st1" width="15.1" height="31.1"/>
	
		<rect id="0x06" x="10.5" y="82.5" transform="matrix(0.963 -0.2695 0.2695 0.963 -26.3863 8.5847)" class="st1" width="15.1" height="35.8"/>
	
		<rect id="0x03" x="160.5" y="117.6" transform="matrix(-0.1232 -0.9924 0.9924 -0.1232 53.8311 319.4522)" class="st1" width="15.1" height="36.8"/>
	
		<rect id="0x02" x="151.9" y="17.3" transform="matrix(0.959 0.2834 -0.2834 0.959 13.7471 -46.5312)" class="st1" width="31.5" height="13.9"/>
	
		<rect id="0x01" x="152.8" y="5.4" transform="matrix(0.959 0.2834 -0.2834 0.959 10.1546 -48.1937)" class="st1" width="37.6" height="11.1"/>
</g>
</svg>