<?xml version="1.0" encoding="utf-8"?>
<!-- Generator: Adobe Illustrator 19.0.0, SVG Export Plug-In . SVG Version: 6.00 Build 0)  -->
<svg version="1.1" xmlns="http://www.w3.org/2000/svg" xmlns:xlink="http://www.w3.org/1999/xlink" x="0px" y="0px" width="219px"
	 height="143px" viewBox="0 0 219 143" style="enable-background:new 0 0 219 143;" xml:space="preserve">
<style type="text/css">
	.st0{fill:none;stroke:#FFF200;stroke-miterlimit:10;}
	.st1{fill:none;stroke:#00A651;stroke-miterlimit:10;}
	.st2{fill:none;stroke:#ED1C24;stroke-miterlimit:10;}
</style>
<g id="Sections_copy">
	<path id="0x0a" class="st0" d="M178.36,110.02c-8.38,6.29-20.08,6.15-30.02,6.25c-12.82,0.13-25.65,0.43-38.47,0.39
		c-22.29-0.07-50.89,3.98-69.69-10.63c-10.41-8.09-16.98-21.31-17.55-34.37"/>
	<path id="0x0c" class="st0" d="M173.83,19.9c17.23,9.4,26.88,22.89,26.83,42.89c-0.02,9.16,0.18,18.19-3.75,26.68
		c-4.02,8.69-10.51,15.52-18.56,20.55"/>
	<path id="0x16" class="st0" d="M83.22,13.28c17.43,0.09,34.86,0.17,52.28,0.26c13.7,0.07,26.06-0.69,38.33,6.36"/>
	<path id="0x11" class="st0" d="M107.42,32.32c-15.39,15.43-5.93,37.17-16.33,54.79c-10.53,17.85-35.13,23.27-51.95,10.87
		c-9.06-6.67-12.82-16.13-16.51-26.33"/>
	<path id="0x0f" class="st0" d="M173.83,19.9c-12.32-3.43-21.89-2.91-34.2-0.29c-12.27,2.61-22.64,4.1-32.22,12.72"/>
	<path id="0x10" class="st0" d="M83.22,13.28C68.88,17,50.93,19.96,38.94,29.09C25.1,39.63,22.45,55.42,22.62,71.66"/>
	<path id="0x0d" class="st0" d="M208.06,67.97c0-16.14-1.77-29.18-11.06-42.83C187.96,11.85,176.17,6.35,161.18,2"/>
	<path id="0x08" class="st0" d="M178.5,134.44c11.04-7.51,18.72-16.18,24.48-28.37c5.89-12.46,5.08-24.62,5.08-38.1"/>
	<path id="0x15" class="st0" d="M83.22,13.28c-17.6,0.31-34.86-1.45-50.42,8.28C18.64,30.41,10.51,45.87,9.96,62.37
		c-0.33,9.94-0.04,19.93-0.07,29.88"/>
	<path id="0x0e" class="st0" d="M161.18,2c-13.03-0.31-26.68-1.77-39.61,0.21C108.55,4.2,95.84,9.57,83.22,13.28"/>
	<path id="0x09" class="st0" d="M161.18,2c11.32,0.36,19.91,4.21,29.49,10.03c9.77,5.94,18.89,11.26,23.54,22.27
		c4.71,11.15,2.92,24.85,2.92,36.6c0,9.83,0.03,19.67,0.04,29.5c0.03,14.2,0.05,28.39,0.08,42.59"/>
	<path id="0x14" class="st0" d="M90.36,133.47c-16.53,0.04-35.61,1.6-51.42-3.64c-17.23-5.7-24.43-21.59-29.05-37.75"/>
	<path id="0x17" class="st0" d="M178.5,134.44c-7.14,2.7-13.91,4.9-21.61,4.51c-7.7-0.39-15.04-1.62-22.61-3.1
		c-14.66-2.85-29.02-2.42-43.92-2.39"/>
	<path id="0x0b" class="st0" d="M82.67,142c18.36,0.06,36.72,0.13,55.08,0.19c14.62,0.05,28.22,1.14,40.74-7.75"/>
	<path id="0x13" class="st0" d="M9.89,92.08c0.81,16.82,9.3,33.85,24.01,42.81c14.87,9.05,32.13,7.05,48.78,7.11"/>
</g>
<g id="Sections">
	<path id="0x0a" class="st1" d="M178.36,110.02c-8.38,6.29-20.08,6.15-30.02,6.25c-12.82,0.13-25.65,0.43-38.47,0.39
		c-22.29-0.07-60.84,6.97-79.63-21.55"/>
	<path id="0x0c" class="st1" d="M176.57,21.47c15.81,10.85,24.14,21.32,24.09,41.32c-0.02,9.16,0.18,18.19-3.75,26.68
		c-4.02,8.69-10.51,15.52-18.56,20.55"/>
	<path id="0x16" class="st1" d="M102.4,13.37c17.43,0.09,26.84,0.13,44.27,0.21"/>
	<path id="0x11" class="st1" d="M107.42,32.32c-15.39,15.43-5.93,37.17-16.33,54.79c-10.53,17.85-37.17,25.22-56.64,6.71"/>
	<path id="0x0f" class="st1" d="M145.59,18.48c-12.27,2.61-28.6,5.22-38.17,13.84"/>
	<path id="0x10" class="st1" d="M63.37,18.24c-14.04,4.86-19.85,6.96-24.43,10.85c-13.21,11.24-15.06,20.04-16.21,36"/>
	<path id="0x0d" class="st1" d="M208.06,67.97c0-16.14-0.95-23.07-6.96-35.65c-5.31-11.11-11.19-15.73-18.14-21.08"/>
	<path id="0x08" class="st1" d="M183.66,130.6c9.79-8.24,13.04-12.22,19.33-24.53c6.26-12.28,5.08-24.62,5.08-38.1"/>
	<path id="0x15" class="st1" d="M62.79,13.37c-6.21,0.58-19.01,1.34-29.99,8.18C18.62,30.38,10.51,45.87,9.96,62.37
		c-0.33,9.94-0.14,10.4-0.16,20.35"/>
	<path id="0x0e" class="st1" d="M153.42,1.72c-13.03-0.31-18.92-1.49-31.85,0.49c-13.01,1.99-7.28,1.26-19.9,4.98"/>
	<path id="0x09" class="st1" d="M183.66,8.08c9.77,5.94,25.49,12.59,30.55,26.22c4.21,11.35,2.92,24.85,2.92,36.6
		c0,9.83,0.03,19.67,0.04,29.5c0.03,14.2,0.05,28.39,0.08,42.59"/>
	<path id="0x14" class="st1" d="M90.36,133.47c-16.53,0.04-35.68,1.8-51.42-3.64c-13.83-4.78-16.32-11-20.78-17.36"/>
	<path id="0x17" class="st1" d="M153.84,138.75c-7.7-0.39-12-1.42-19.56-2.9c-14.66-2.85-29.02-2.42-43.92-2.39"/>
	<path id="0x0b" class="st1" d="M82.67,142c18.36,0.06,53.85,0.19,72.21,0.26"/>
	<path id="0x13" class="st1" d="M15.15,113.39c16.09,34.6,50.87,28.55,67.52,28.61"/>
</g>
<g id="Turnouts">
	
		<rect id="0x05" x="18.79" y="64.72" transform="matrix(0.9567 -0.2911 0.2911 0.9567 -22.1987 11.1118)" class="st2" width="14.92" height="30.9"/>
	
		<rect id="0x06" x="4.79" y="82.67" transform="matrix(0.9567 -0.2911 0.2911 0.9567 -28.0305 7.8142)" class="st2" width="14.92" height="30.9"/>
	
		<rect id="0x03" x="161.83" y="121.05" transform="matrix(0.2858 0.9583 -0.9583 0.2858 251.718 -64.7429)" class="st2" width="14.92" height="30.9"/>
	
		<rect id="0x07" x="62.92" y="4.61" transform="matrix(0.9929 -0.1188 0.1188 0.9929 -0.9931 9.9085)" class="st2" width="39.33" height="17.33"/>
	
		<rect id="0x01" x="161.32" y="-11.66" transform="matrix(-0.2147 0.9767 -0.9767 -0.2147 208.73 -160.2337)" class="st2" width="14.92" height="30.9"/>
	
		<rect id="0x02" x="154.14" y="2.18" transform="matrix(-0.2147 0.9767 -0.9767 -0.2147 213.5174 -136.4118)" class="st2" width="14.92" height="30.9"/>
</g>
</svg>
