<?xml version="1.0" encoding="utf-8"?>
<!-- Generator: Adobe Illustrator 19.0.0, SVG Export Plug-In . SVG Version: 6.00 Build 0)  -->
<svg version="1.1" xmlns="http://www.w3.org/2000/svg" xmlns:xlink="http://www.w3.org/1999/xlink" x="0px" y="0px" width="219px"
	 height="143px" viewBox="0 0 219 143" style="enable-background:new 0 0 219 143;" xml:space="preserve">
<g id="Sections">
	<path id="0x0a" style="fill:none;stroke:#00A651;stroke-miterlimit:10;" d="M178.622,107.792
		c-8.514,6.322-20.397,6.18-30.484,6.285c-13.021,0.136-26.051,0.428-39.073,0.388c-22.641-0.068-61.787,7.009-80.863-21.657"/>
	<path id="0x0c" style="fill:none;stroke:#00A651;stroke-miterlimit:10;" d="M176.811,18.81
		c16.051,10.906,24.516,21.425,24.468,41.52c-0.022,9.207,0.183,18.278-3.808,26.815c-4.084,8.737-10.678,15.593-18.849,20.646"/>
	<path id="0x16" style="fill:none;stroke:#00A651;stroke-miterlimit:10;" d="M101.486,10.674
		c17.699,0.086,27.255,0.129,44.953,0.215"/>
	<path id="0x11" style="fill:none;stroke:#00A651;stroke-miterlimit:10;" d="M106.58,29.716
		c-15.625,15.502-6.026,37.349-16.586,55.063c-10.696,17.943-37.75,25.349-57.521,6.744"/>
	<path id="0x0f" style="fill:none;stroke:#00A651;stroke-miterlimit:10;" d="M145.347,15.807
		c-12.461,2.619-29.042,5.25-38.766,13.908"/>
	<path id="0x10" style="fill:none;stroke:#00A651;stroke-miterlimit:10;" d="M61.847,15.562
		c-14.258,4.884-20.158,6.989-24.805,10.9c-13.42,11.295-15.294,20.14-16.459,36.181"/>
	<path id="0x0d" style="fill:none;stroke:#00A651;stroke-miterlimit:10;" d="M208.79,65.537c0-16.218-0.961-23.185-7.066-35.821
		c-5.394-11.165-11.369-15.81-18.424-21.18"/>
	<path id="0x08" style="fill:none;stroke:#00A651;stroke-miterlimit:10;" d="M184.005,128.479
		c9.947-8.277,13.246-12.276,19.628-24.653c6.362-12.341,5.157-24.743,5.157-38.288"/>
	<path id="0x15" style="fill:none;stroke:#00A651;stroke-miterlimit:10;" d="M61.256,10.674
		c-6.308,0.582-19.304,1.351-30.459,8.224C16.403,27.767,8.164,43.332,7.605,59.915c-0.336,9.987-0.141,10.453-0.163,20.447"/>
	<path id="0x0e" style="fill:none;stroke:#00A651;stroke-miterlimit:10;" d="M153.295-1.038
		c-13.236-0.309-19.218-1.493-32.35,0.492c-13.216,1.997-7.396,1.269-20.211,5.001"/>
	<path id="0x09" style="fill:none;stroke:#00A651;stroke-miterlimit:10;" d="M184.005,5.357
		c9.919,5.967,25.887,12.654,31.026,26.347c4.28,11.403,2.961,24.97,2.961,36.782c0,9.883,0.026,19.767,0.045,29.65
		c0.027,14.267,0.055,28.534,0.082,42.802"/>
	<path id="0x14" style="fill:none;stroke:#00A651;stroke-miterlimit:10;" d="M89.262,131.359
		c-16.784,0.037-36.231,1.807-52.222-3.655c-14.05-4.799-16.571-11.054-21.102-17.441"/>
	<path id="0x17" style="fill:none;stroke:#00A651;stroke-miterlimit:10;" d="M153.726,136.67
		c-7.821-0.39-12.186-1.432-19.866-2.911c-14.885-2.867-29.476-2.433-44.598-2.399"/>
	<path id="0x0b" style="fill:none;stroke:#00A651;stroke-miterlimit:10;" d="M81.453,139.932
		c18.647,0.063,54.688,0.194,73.334,0.258"/>
	<path id="0x13" style="fill:none;stroke:#00A651;stroke-miterlimit:10;" d="M12.883,111.183
		c16.338,34.773,51.665,28.692,68.57,28.749"/>
</g>
<g id="Turnouts">
	<polygon id="0x05" style="fill:none;stroke:#ED1C24;stroke-miterlimit:10;" points="35.966,90.472 21.469,94.836 
		12.335,65.127 26.832,60.763 	"/>
	<polygon id="0x06" style="fill:none;stroke:#ED1C24;stroke-miterlimit:10;" points="21.749,108.514 7.251,112.878 
		-1.883,83.169 12.614,78.804 	"/>
	<polygon id="0x03" style="fill:none;stroke:#ED1C24;stroke-miterlimit:10;" points="156.547,146.03 152.216,131.66 
		182.289,122.785 186.62,137.155 	"/>
	<polygon id="0x07" style="fill:none;stroke:#ED1C24;stroke-miterlimit:10;" points="102.237,16.879 62.575,21.577 
		60.483,4.281 100.145,-0.416 	"/>
	<polygon id="0x01" style="fill:none;stroke:#ED1C24;stroke-miterlimit:10;" points="151.945,5.036 155.199,-9.609 
		185.849,-2.941 182.595,11.704 	"/>
	<polygon id="0x02" style="fill:none;stroke:#ED1C24;stroke-miterlimit:10;" points="144.651,18.939 147.905,4.294 
		178.555,10.963 175.301,25.608 	"/>
</g>
</svg>
