<?xml version="1.0" encoding="utf-8"?>
<!-- Generator: Adobe Illustrator 19.0.0, SVG Export Plug-In . SVG Version: 6.00 Build 0)  -->
<svg version="1.1" xmlns="http://www.w3.org/2000/svg" xmlns:xlink="http://www.w3.org/1999/xlink" x="0px" y="0px"
	 viewBox="2656.3 -1772.3 6491.3 4337" style="enable-background:new 2656.3 -1772.3 6491.3 4337;" xml:space="preserve">
<style type="text/css">
	.st0{fill:none;stroke:#00FF00;stroke-width:8;}
	.st1{fill:none;stroke:#0000FF;stroke-width:8;}
	.st2{fill:none;stroke:#FF0000;stroke-width:8;}
</style>
<rect id="Board" x="2798" y="-1630.5" class="st0" width="6207.9" height="4053.5"/>
<g id="Sections">
	<path id="_x30_x15" class="st1" d="M3090.4,675.8c0-393.6-40.1-784.6,140.8-1146.9c167.1-334.5,494.1-614.3,858.7-710
		c227.1-59.6,446.9-56.4,680.7-56.4"/>
	<path id="_x30_x13" class="st1" d="M5108.3,2380.9c-306-4.2-646.9,30.4-946.4-47.8c-315.5-82.4-591.9-271.4-780.8-537.1
		c-106.5-149.8-188-305-237.6-482.7"/>
	<path id="_x30_x0b" class="st1" d="M7400.4,2367.3c-230.9,35.7-470.9,16.2-703.7,15.3c-406-1.6-812-3.2-1217.9-4.8
		c-99.4-0.4-198.8-0.8-298.2-1.2"/>
	<path id="_x30_x08" class="st1" d="M8696.4,343.8c0.9,259.6,15.3,506.4-50.3,759c-61,234.6-185.8,489.9-340.5,677.7
		c-99.4,120.7-202,214.6-328.5,307"/>
	<path id="_x30_x0d_1_" class="st1" d="M7773-1438.8c236.5,113.9,416.3,241.3,589,479c155.1,213.4,287.6,479.9,326,742.3
		c22.2,151.7,9.7,308.3,10.4,460.9"/>
	<path id="_x30_x0e" class="st1" d="M7187.2-1571.2c-223.4,0-446.8,0-670.2,0c-229.2,0-441.2,38.9-657.2,113
		c-119.4,41-239.9,76.7-361,112.6"/>
	<path id="_x30_x09" class="st1" d="M8942,2423c4.3-665.6,8.7-1331.1,13-1996.7c3.2-488.4,68.4-1059.3-331.7-1422.1
		c-131.6-119.4-289.5-210.4-437.6-306.9c-123.2-80.3-262.1-151.5-401.3-198.6"/>
	<path id="_x30_x0a_2_" class="st1" d="M3524.3,743.8c100,261,279.4,531,525.8,676c257.6,151.7,514.8,211,811.1,213.5
		c688.8,5.9,1377.4,9.2,2066.2,9.9c137.6,0.1,276.3,6,413.6-4.3c176.9-13.2,331.3-70,492.2-142.1"/>
	<path id="_x30_x0c" class="st1" d="M7928.1-959.8c157,122.6,287.3,238.3,392.7,409.4c101.3,164.5,149.8,341.9,163.5,533.1
		c26.1,362.7,14.4,745.6-178.8,1064.5c-109.8,181.2-256.2,296.1-421.6,423.3"/>
	<path id="_x30_x16" class="st1" d="M5510.7-1233.6c525,0.2,1050-1.8,1575,0.6c95.8,0.4,202.9-3.3,294.9,23.8"/>
	<path id="_x30_x10" class="st1" d="M3437.7,69.8c29.6-248.5,101.4-484.1,265.9-678.7c163.5-193.4,375.9-319.1,615.8-392.8
		c154.7-47.5,309.5-94.7,464.2-142.1"/>
	<path id="_x30_x11_1_" class="st1" d="M5822.9-674.7c-86.8,94.2-163,181.4-205.2,304.9c-37,108.4-57,226-60.5,340.6
		c-8,264.5-2.2,524.8-122.3,767.9c-225.6,456.6-741.6,685.6-1229.2,525.7c-272.6-89.4-477.4-290-615.1-535"/>
	<path id="_x30_x0f" class="st1" d="M7357.2-1134.8c-276.1-12.6-533.6,62.3-802,121.7C6306-957.9,6078-902.7,5882.6-728.1"/>
	<path id="_x30_x14" class="st1" d="M3205.7,1305.5c113.9,291.5,326.5,547.3,611.8,684.6c278.6,134,590.8,123.9,893,128
		c206,2.8,411.9,5.6,617.9,8.4"/>
	<path id="_x30_x17" class="st1" d="M7370.5,2291.7c-260-3.9-494.5-35.1-747.1-94.8c-243.1-57.4-473.1-78.1-722.3-76.6
		c-166.8,1.1-333.6,2.1-500.4,3.2"/>
</g>
<g id="Switches">
	
		<rect id="_x30_x01" x="7186.9" y="-1659.2" transform="matrix(0.9855 0.1696 -0.1696 0.9855 -153.3663 -1292.4468)" class="st2" width="600.5" height="230.8"/>
	
		<rect id="_x30_x02" x="7356.8" y="-1203.2" transform="matrix(0.9539 0.3 -0.3 0.9539 26.1892 -2346.2703)" class="st2" width="595.5" height="230.8"/>
	
		<rect id="_x30_x04" x="4774.5" y="-1389.8" transform="matrix(0.9904 -0.1384 0.1384 0.9904 220.4288 700.1088)" class="st2" width="737.4" height="310.5"/>
	
		<rect id="_x30_x03" x="7363.9" y="2080.2" transform="matrix(0.9299 -0.3678 0.3678 0.9299 -275.8187 2980.7759)" class="st2" width="639.2" height="267.8"/>
	
		<rect id="_x30_x06" x="2790.9" y="861.5" transform="matrix(-0.1251 -0.9921 0.9921 -0.1251 2512.1555 4206.0132)" class="st2" width="639.2" height="267.8"/>
	
		<rect id="_x30_x05" x="3169.2" y="290.5" transform="matrix(-0.2132 -0.977 0.977 -0.2132 3818.0601 3923.4973)" class="st2" width="639.2" height="267.8"/>
</g>
</svg>
